PathFileType	4	(X/Y/Z)	C:\Users\chris\Documents\GitHub\baseballds\vids\pitch5_Sports2D\pitch5_Sports2D_px_person04.trc
DataRate	CameraRate	NumFrames	NumMarkers	Units	OrigDataRate	OrigDataStartFrame	OrigNumFrames
30	30	7	22	m	30	18	149
Frame#	Time	Hip			RHip			RKnee			RAnkle			RBigToe			RSmallToe			RHeel			LHip			LKnee			LAnkle			LBigToe			LSmallToe			LHeel			Neck			Head			Nose			RShoulder			RElbow			RWrist			LShoulder			LElbow			LWrist		
		X1	Y1	Z1	X2	Y2	Z2	X3	Y3	Z3	X4	Y4	Z4	X5	Y5	Z5	X6	Y6	Z6	X7	Y7	Z7	X8	Y8	Z8	X9	Y9	Z9	X10	Y10	Z10	X11	Y11	Z11	X12	Y12	Z12	X13	Y13	Z13	X14	Y14	Z14	X15	Y15	Z15	X16	Y16	Z16	X17	Y17	Z17	X18	Y18	Z18	X19	Y19	Z19	X20	Y20	Z20	X21	Y21	Z21	X22	Y22	Z22
18	0.6	1244.3933427590935	429.31150938636455	0.0	1240.9702962867832	429.3063163887736	0.0	1240.686563870629	440.1228894618656	0.0	1240.7086582207905	450.3859752121869	0.0	1242.7376674016314	452.0390110896658	0.0	1240.5447879093936	452.8630566067816	0.0	1240.8499944863106	451.4900827451872	0.0	1247.4013365381825	430.1244992701512	0.0	1247.942294565847	440.11796219984825	0.0	1248.3693582157496	449.96607466521766	0.0	1249.880154715624	452.58063154109163	0.0	1249.8467161024562	449.69056866662606	0.0	1246.8580657078846	451.07054742360543	0.0	1251.2421875506257	412.62935393266537	0.0	1253.534316895615	404.9656237759207	0.0	1253.5378696660432	410.17175353265395	0.0	1246.406427059911	413.4515269373462	0.0	1241.5794536717553	420.2069845276851	0.0	1259.7960422634987	416.2335930069237	0.0	1255.2474728584223	415.0904719327996	0.0	1254.0804234067257	421.2725339801572	0.0	1259.2625198567312	424.6102576897082	0.0
19	0.6333333333333333	1244.3996848501183	429.32401401376103	0.0	1240.9807155301532	429.31296724026186	0.0	1240.67852582146	440.1297535420506	0.0	1240.707966645164	450.38995356091175	0.0	1242.7065754348307	452.0568169819782	0.0	1240.5102710876502	452.8813073900328	0.0	1240.8490498166618	451.5047108970891	0.0	1247.4045624686714	430.12681043938636	0.0	1247.933449792955	440.12550999224766	0.0	1248.3685732226513	449.96472387040706	0.0	1249.8744280395767	452.59231161098785	0.0	1249.8452091162367	449.669098216153	0.0	1246.8492215721467	451.079268188058	0.0	1251.2430682657487	412.65415218988744	0.0	1253.485805455691	404.98817236623586	0.0	1253.5045986697614	410.20045659933237	0.0	1246.3654611643171	413.48648516245055	0.0	1241.3620344201709	420.3078318097806	0.0	1259.7907237736601	416.23202136111206	0.0	1255.2791309871654	415.1126621955458	0.0	1254.0394829772733	421.31908376022284	0.0	1259.1891215554924	424.71914128011304	0.0
20	0.6666666666666666	1244.400868834695	429.27256579064243	0.0	1240.9804444311328	429.2693934404283	0.0	1240.6982088547888	440.08231380901196	0.0	1240.7047781633576	450.34555110611683	0.0	1242.7436784147744	451.994520048783	0.0	1240.5518434548585	452.81687491274204	0.0	1240.8421937682233	451.4458544292776	0.0	1247.4100925544014	430.0885983119281	0.0	1247.9524161811337	440.08158165880866	0.0	1248.368029481886	449.9312629547245	0.0	1249.8735149540944	452.5389079417198	0.0	1249.8441522173482	449.6653404152218	0.0	1246.8575659618998	451.0313860583294	0.0	1251.2434392440641	412.58233888290306	0.0	1253.5448774981087	404.9169026445219	0.0	1253.5517595657932	410.1208580859183	0.0	1246.4305797545867	413.407740275407	0.0	1241.6812653810282	420.1475355435173	0.0	1259.7910902422263	416.2323367397159	0.0	1255.2305732011473	415.0446037584482	0.0	1254.0965688345136	421.21707035984804	0.0	1259.2820257965598	424.53795343538496	0.0
21	0.7	1244.4001661336845	429.2516070047141	0.0	1240.9783096412636	429.25256994801936	0.0	1240.7070019033592	440.06397220245753	0.0	1240.7037274579716	450.3290522498502	0.0	1242.763548386251	451.9688669038351	0.0	1240.573956982946	452.7903529288165	0.0	1240.8396278485366	451.42201747275413	0.0	1247.4117074409733	430.0745744214613	0.0	1247.9611183417383	440.0644449235538	0.0	1248.3678538794888	449.91981791726795	0.0	1249.8740976730398	452.51757058015676	0.0	1249.843970006971	449.66910068126134	0.0	1246.862437870713	451.01270022020867	0.0	1251.2434780407189	412.55153173493426	0.0	1253.5768205424813	404.88707486416547	0.0	1253.5761856564673	410.0867099804098	0.0	1246.4624303185442	413.3721652726939	0.0	1241.8416650425804	420.0689462291838	0.0	1259.7916902030388	416.23334091219573	0.0	1255.206534828782	415.01579475619536	0.0	1254.1259329636691	421.1716948465696	0.0	1259.3302925817943	424.4498032808266	0.0
22	0.7333333333333333	1244.4042194442322	429.2735138165039	0.0	1240.9824067772722	429.2749852854888	0.0	1240.710965277738	440.0871185877932	0.0	1240.7085033156823	450.3531502770729	0.0	1242.7625818519489	451.9947425932146	0.0	1240.5738036590897	452.81417402896494	0.0	1240.8449306008183	451.4468977509986	0.0	1247.4162844039265	430.0963222901385	0.0	1247.9635353372805	440.08792932745035	0.0	1248.3741795460805	449.94407983699165	0.0	1249.8769471687424	452.54225989511826	0.0	1249.8490874246872	449.6975580709458	0.0	1246.8731866662763	451.03787557460794	0.0	1251.2461451558554	412.5740888775648	0.0	1253.5844349384597	404.9116811095548	0.0	1253.5805666709707	410.1115615480602	0.0	1246.4607811560402	413.39288778083846	0.0	1241.840333162872	420.0872504845899	0.0	1259.7916602537478	416.2338469200257	0.0	1255.2081338085231	415.0379977007992	0.0	1254.125600254577	421.19266977150374	0.0	1259.3297973674476	424.4527840597252	0.0
23	0.7666666666666666	1244.4139122776733	429.3200974121462	0.0	1240.993430282216	429.32152823986536	0.0	1240.719606594704	440.1354826734961	0.0	1240.719081268293	450.40234517111645	0.0	1242.7560011368355	452.04866573513107	0.0	1240.5691074095314	452.8634096683501	0.0	1240.857765549826	451.49861912341197	0.0	1247.4261771797976	430.1410004684422	0.0	1247.968421862899	440.1370672452574	0.0	1248.3890659103781	449.9933419838334	0.0	1249.883547322499	452.59380587656506	0.0	1249.8608508246562	449.7522051406526	0.0	1246.895885899596	451.0900286968266	0.0	1251.2518875606793	412.6229798071988	0.0	1253.5917757623472	404.96279627815966	0.0	1253.5835929429672	410.16420266639176	0.0	1246.453871665567	413.4404436325714	0.0	1241.8127399716864	420.13751345811687	0.0	1259.7941383834143	416.23124710894695	0.0	1255.2147365357512	415.0851818614163	0.0	1254.1184276446934	421.2354979612966	0.0	1259.3221293703136	424.4706512259567	0.0
24	0.8	1244.4086959715792	429.297930875702	0.0	1240.9891772439362	429.2976763045839	0.0	1240.7154864973932	440.11179418657593	0.0	1240.715114223281	450.37594282864154	0.0	1242.7546865030913	452.0195038931033	0.0	1240.5677596084363	452.8361722128182	0.0	1240.855978643239	451.4711191630106	0.0	1247.4191540308566	430.117901244117	0.0	1247.9656183488955	440.11230447947713	0.0	1248.3848526260347	449.966571190369	0.0	1249.8835726310276	452.56724380176934	0.0	1249.8573378564624	449.7170232540505	0.0	1246.885267029907	451.0623824957547	0.0	1251.248560013766	412.60025894266835	0.0	1253.5756671080483	404.9344666161411	0.0	1253.5720962102216	410.1364239478172	0.0	1246.454931211223	413.42188999960894	0.0	1241.8011974109716	420.1240616828223	0.0	1259.8008977695804	416.22429489272116	0.0	1255.2143543734214	415.06148884907185	0.0	1254.1134164338034	421.20591340602067	0.0	1259.3238134872392	424.47535060892795	0.0
